<?xml version="1.0" encoding="UTF-8" standalone="no"?>
<!DOCTYPE svg PUBLIC "-//W3C//DTD SVG 1.1//EN"
 "http://www.w3.org/Graphics/SVG/1.1/DTD/svg11.dtd">
<!-- Generated by graphviz version 7.1.0 (20230122.1345)
 -->
<!-- Title: imdf_net_1696602713.5216317 Pages: 1 -->
<svg width="2572pt" height="420pt"
 viewBox="0.00 0.00 2572.00 420.00" xmlns="http://www.w3.org/2000/svg" xmlns:xlink="http://www.w3.org/1999/xlink">
<g id="graph0" class="graph" transform="scale(1 1) rotate(0) translate(4 416)">
<title>imdf_net_1696602713.5216317</title>
<!-- 140588195273984 -->
<g id="node1" class="node">
<title>140588195273984</title>
<polygon fill="black" stroke="black" points="144,-219 90,-219 90,-183 144,-183 144,-219"/>
</g>
<!-- 140588195273120 -->
<g id="node35" class="node">
<title>140588195273120</title>
<ellipse fill="none" stroke="black" cx="207" cy="-265" rx="27" ry="27"/>
</g>
<!-- 140588195273984&#45;&gt;140588195273120 -->
<g id="edge47" class="edge">
<title>140588195273984&#45;&gt;140588195273120</title>
<path fill="none" stroke="black" d="M142.98,-219.17C153.02,-226.47 164.69,-234.96 175.24,-242.63"/>
<polygon fill="black" stroke="black" points="173.17,-245.45 183.32,-248.5 177.29,-239.79 173.17,-245.45"/>
</g>
<!-- 140588195304160 -->
<g id="node37" class="node">
<title>140588195304160</title>
<ellipse fill="none" stroke="black" cx="207" cy="-165" rx="27" ry="27"/>
</g>
<!-- 140588195273984&#45;&gt;140588195304160 -->
<g id="edge48" class="edge">
<title>140588195273984&#45;&gt;140588195304160</title>
<path fill="none" stroke="black" d="M144.4,-190.2C152.75,-186.78 162.12,-182.95 170.97,-179.33"/>
<polygon fill="black" stroke="black" points="172.09,-182.65 180.02,-175.63 169.44,-176.17 172.09,-182.65"/>
</g>
<!-- 140588195261696 -->
<g id="node2" class="node">
<title>140588195261696</title>
<polygon fill="black" stroke="black" points="1713.5,-254 1659.5,-254 1659.5,-218 1713.5,-218 1713.5,-254"/>
</g>
<!-- 140588195260496 -->
<g id="node33" class="node">
<title>140588195260496</title>
<ellipse fill="none" stroke="black" cx="1809" cy="-225" rx="27" ry="27"/>
</g>
<!-- 140588195261696&#45;&gt;140588195260496 -->
<g id="edge36" class="edge">
<title>140588195261696&#45;&gt;140588195260496</title>
<path fill="none" stroke="black" d="M1713.94,-233.59C1730.43,-232.08 1751.9,-230.12 1770.16,-228.45"/>
<polygon fill="black" stroke="black" points="1770.47,-231.94 1780.11,-227.55 1769.83,-224.97 1770.47,-231.94"/>
</g>
<!-- 140588195262080 -->
<g id="node3" class="node">
<title>140588195262080</title>
<polygon fill="none" stroke="black" points="1746,-308 1627,-308 1627,-272 1746,-272 1746,-308"/>
<text text-anchor="middle" x="1686.5" y="-286.9" font-family="Times,serif" font-size="12.00">reinitiateRequest</text>
</g>
<!-- 140588195262080&#45;&gt;140588195260496 -->
<g id="edge4" class="edge">
<title>140588195262080&#45;&gt;140588195260496</title>
<path fill="none" stroke="black" d="M1729.03,-271.57C1734.78,-268.8 1740.57,-265.9 1746,-263 1756,-257.65 1766.61,-251.38 1776.18,-245.49"/>
<polygon fill="black" stroke="black" points="1777.79,-248.61 1784.41,-240.35 1774.08,-242.68 1777.79,-248.61"/>
</g>
<!-- 140588195259152 -->
<g id="node4" class="node">
<title>140588195259152</title>
<polygon fill="none" stroke="black" points="987,-194 868,-194 868,-158 987,-158 987,-194"/>
<text text-anchor="middle" x="927.5" y="-172.9" font-family="Times,serif" font-size="12.00">examineCasually</text>
</g>
<!-- 140588195258864 -->
<g id="node31" class="node">
<title>140588195258864</title>
<ellipse fill="none" stroke="black" cx="1050" cy="-156" rx="27" ry="27"/>
</g>
<!-- 140588195259152&#45;&gt;140588195258864 -->
<g id="edge8" class="edge">
<title>140588195259152&#45;&gt;140588195258864</title>
<path fill="none" stroke="black" d="M987.34,-166.23C995.67,-164.85 1004.04,-163.46 1011.8,-162.17"/>
<polygon fill="black" stroke="black" points="1012.26,-165.65 1021.55,-160.56 1011.11,-158.74 1012.26,-165.65"/>
</g>
<!-- 140588195261456 -->
<g id="node5" class="node">
<title>140588195261456</title>
<polygon fill="none" stroke="black" points="1389.5,-271 1333.5,-271 1333.5,-235 1389.5,-235 1389.5,-271"/>
<text text-anchor="middle" x="1361.5" y="-249.9" font-family="Times,serif" font-size="12.00">decide</text>
</g>
<!-- 140588195261216 -->
<g id="node34" class="node">
<title>140588195261216</title>
<ellipse fill="none" stroke="black" cx="1528.5" cy="-261" rx="27" ry="27"/>
</g>
<!-- 140588195261456&#45;&gt;140588195261216 -->
<g id="edge1" class="edge">
<title>140588195261456&#45;&gt;140588195261216</title>
<path fill="none" stroke="black" d="M1389.75,-254.32C1416.98,-255.64 1459.07,-257.68 1489.57,-259.16"/>
<polygon fill="black" stroke="black" points="1489.36,-262.65 1499.52,-259.64 1489.7,-255.66 1489.36,-262.65"/>
</g>
<!-- 140588195308304 -->
<g id="node6" class="node">
<title>140588195308304</title>
<polygon fill="black" stroke="black" points="2106,-156 2052,-156 2052,-120 2106,-120 2106,-156"/>
</g>
<!-- 140588195307184 -->
<g id="node28" class="node">
<title>140588195307184</title>
<ellipse fill="none" stroke="black" cx="2169" cy="-138" rx="27" ry="27"/>
</g>
<!-- 140588195308304&#45;&gt;140588195307184 -->
<g id="edge40" class="edge">
<title>140588195308304&#45;&gt;140588195307184</title>
<path fill="none" stroke="black" d="M2106.4,-138C2113.89,-138 2122.18,-138 2130.2,-138"/>
<polygon fill="black" stroke="black" points="2130.1,-141.5 2140.1,-138 2130.1,-134.5 2130.1,-141.5"/>
</g>
<!-- 140588195309072 -->
<g id="node7" class="node">
<title>140588195309072</title>
<polygon fill="black" stroke="black" points="2286,-192 2232,-192 2232,-156 2286,-156 2286,-192"/>
</g>
<!-- 140588195305312 -->
<g id="node25" class="node">
<title>140588195305312</title>
<ellipse fill="none" stroke="black" cx="2349" cy="-283" rx="27" ry="27"/>
</g>
<!-- 140588195309072&#45;&gt;140588195305312 -->
<g id="edge42" class="edge">
<title>140588195309072&#45;&gt;140588195305312</title>
<path fill="none" stroke="black" d="M2274.93,-192.49C2288.39,-209.16 2308.42,-233.98 2324.11,-253.41"/>
<polygon fill="black" stroke="black" points="2321.24,-255.42 2330.24,-261.01 2326.68,-251.03 2321.24,-255.42"/>
</g>
<!-- 140588195306272 -->
<g id="node8" class="node">
<title>140588195306272</title>
<polygon fill="black" stroke="black" points="742,-290 688,-290 688,-254 742,-254 742,-290"/>
</g>
<!-- 140588195306272&#45;&gt;140588195305312 -->
<g id="edge44" class="edge">
<title>140588195306272&#45;&gt;140588195305312</title>
<path fill="none" stroke="black" d="M737.37,-290.47C773.66,-319.87 850.76,-374 926.5,-374 926.5,-374 926.5,-374 2170,-374 2228.06,-374 2286.24,-335.15 2319.6,-308.22"/>
<polygon fill="black" stroke="black" points="2321.7,-311.02 2327.16,-301.94 2317.23,-305.63 2321.7,-311.02"/>
</g>
<!-- 140588195259440 -->
<g id="node9" class="node">
<title>140588195259440</title>
<polygon fill="none" stroke="black" points="972,-140 883,-140 883,-104 972,-104 972,-140"/>
<text text-anchor="middle" x="927.5" y="-118.9" font-family="Times,serif" font-size="12.00">checkTicket</text>
</g>
<!-- 140588195259440&#45;&gt;140588195258864 -->
<g id="edge6" class="edge">
<title>140588195259440&#45;&gt;140588195258864</title>
<path fill="none" stroke="black" d="M972.34,-134.37C985.53,-138.09 999.86,-142.13 1012.52,-145.71"/>
<polygon fill="black" stroke="black" points="1011.56,-149.07 1022.14,-148.42 1013.46,-142.34 1011.56,-149.07"/>
</g>
<!-- 140588195260736 -->
<g id="node10" class="node">
<title>140588195260736</title>
<polygon fill="none" stroke="black" points="1591,-216 1466,-216 1466,-180 1591,-180 1591,-216"/>
<text text-anchor="middle" x="1528.5" y="-194.9" font-family="Times,serif" font-size="12.00">payCompensation</text>
</g>
<!-- 140588195260736&#45;&gt;140588195260496 -->
<g id="edge3" class="edge">
<title>140588195260736&#45;&gt;140588195260496</title>
<path fill="none" stroke="black" d="M1591.43,-197.84C1634.9,-198.53 1694.29,-201.1 1746,-209 1754.46,-210.29 1763.44,-212.26 1771.86,-214.37"/>
<polygon fill="black" stroke="black" points="1770.87,-217.73 1781.44,-216.91 1772.67,-210.96 1770.87,-217.73"/>
</g>
<!-- 140588195306704 -->
<g id="node11" class="node">
<title>140588195306704</title>
<polygon fill="black" stroke="black" points="562,-154 508,-154 508,-118 562,-118 562,-154"/>
</g>
<!-- 140588195306608 -->
<g id="node27" class="node">
<title>140588195306608</title>
<ellipse fill="none" stroke="black" cx="625" cy="-122" rx="27" ry="27"/>
</g>
<!-- 140588195306704&#45;&gt;140588195306608 -->
<g id="edge11" class="edge">
<title>140588195306704&#45;&gt;140588195306608</title>
<path fill="none" stroke="black" d="M562.4,-131.8C570.04,-130.58 578.53,-129.23 586.7,-127.93"/>
<polygon fill="black" stroke="black" points="587.1,-131.41 596.42,-126.39 586,-124.5 587.1,-131.41"/>
</g>
<!-- 140588195261648 -->
<g id="node12" class="node">
<title>140588195261648</title>
<polygon fill="black" stroke="black" points="1926,-183 1872,-183 1872,-147 1926,-147 1926,-183"/>
</g>
<!-- 140588195259920 -->
<g id="node32" class="node">
<title>140588195259920</title>
<ellipse fill="none" stroke="black" cx="1230" cy="-198" rx="27" ry="27"/>
</g>
<!-- 140588195261648&#45;&gt;140588195259920 -->
<g id="edge37" class="edge">
<title>140588195261648&#45;&gt;140588195259920</title>
<path fill="none" stroke="black" d="M1871.78,-162.34C1831.99,-158.53 1753.96,-152 1687.5,-152 1527.5,-152 1527.5,-152 1527.5,-152 1432.91,-152 1323.33,-175.14 1267.62,-188.6"/>
<polygon fill="black" stroke="black" points="1266.92,-185.17 1258.04,-190.95 1268.59,-191.96 1266.92,-185.17"/>
</g>
<!-- 140588195307088 -->
<g id="node13" class="node">
<title>140588195307088</title>
<polygon fill="black" stroke="black" points="2466,-253 2412,-253 2412,-217 2466,-217 2466,-253"/>
</g>
<!-- 140588195307088&#45;&gt;140588195304160 -->
<g id="edge43" class="edge">
<title>140588195307088&#45;&gt;140588195304160</title>
<path fill="none" stroke="black" d="M2433.65,-216.56C2419.37,-161.16 2368.5,0 2260,0 444,0 444,0 444,0 351.2,0 268.9,-86.75 230.66,-134.45"/>
<polygon fill="black" stroke="black" points="227.97,-132.21 224.54,-142.24 233.47,-136.53 227.97,-132.21"/>
</g>
<!-- 140588195273696 -->
<g id="node14" class="node">
<title>140588195273696</title>
<polygon fill="black" stroke="black" points="2466,-349 2412,-349 2412,-313 2466,-313 2466,-349"/>
</g>
<!-- 140588195274608 -->
<g id="node38" class="node">
<title>140588195274608</title>
<ellipse fill="none" stroke="black" cx="2533" cy="-331" rx="27" ry="27"/>
<ellipse fill="none" stroke="black" cx="2533" cy="-331" rx="31" ry="31"/>
<text text-anchor="start" x="2517.5" y="-322.9" font-family="Times,serif" font-size="32.00">â– </text>
</g>
<!-- 140588195273696&#45;&gt;140588195274608 -->
<g id="edge46" class="edge">
<title>140588195273696&#45;&gt;140588195274608</title>
<path fill="none" stroke="black" d="M2466.12,-331C2473.63,-331 2482.01,-331 2490.22,-331"/>
<polygon fill="black" stroke="black" points="2490.08,-334.5 2500.08,-331 2490.08,-327.5 2490.08,-334.5"/>
</g>
<!-- 140588195261024 -->
<g id="node15" class="node">
<title>140588195261024</title>
<polygon fill="none" stroke="black" points="1430,-336 1293,-336 1293,-300 1430,-300 1430,-336"/>
<text text-anchor="middle" x="1361.5" y="-314.9" font-family="Times,serif" font-size="12.00">examineThoroughly</text>
</g>
<!-- 140588195261024&#45;&gt;140588195260496 -->
<g id="edge2" class="edge">
<title>140588195261024&#45;&gt;140588195260496</title>
<path fill="none" stroke="black" d="M1430.16,-335.93C1510.59,-353.34 1646.44,-370.13 1746,-317 1768.28,-305.11 1784.01,-281.26 1794.04,-260.82"/>
<polygon fill="black" stroke="black" points="1797.15,-262.45 1798.15,-251.9 1790.79,-259.52 1797.15,-262.45"/>
</g>
<!-- 140588195304688 -->
<g id="node16" class="node">
<title>140588195304688</title>
<polygon fill="none" stroke="black" points="375.5,-293 276.5,-293 276.5,-257 375.5,-257 375.5,-293"/>
<text text-anchor="middle" x="326" y="-271.9" font-family="Times,serif" font-size="12.00">rejectRequest</text>
</g>
<!-- 140588195304256 -->
<g id="node36" class="node">
<title>140588195304256</title>
<ellipse fill="none" stroke="black" cx="625" cy="-345" rx="27" ry="27"/>
</g>
<!-- 140588195304688&#45;&gt;140588195304256 -->
<g id="edge5" class="edge">
<title>140588195304688&#45;&gt;140588195304256</title>
<path fill="none" stroke="black" d="M375.71,-286.48C435.04,-300.47 533.94,-323.77 587.25,-336.34"/>
<polygon fill="black" stroke="black" points="586.21,-339.69 596.74,-338.58 587.81,-332.88 586.21,-339.69"/>
</g>
<!-- 140588195305840 -->
<g id="node17" class="node">
<title>140588195305840</title>
<polygon fill="none" stroke="black" points="382,-183 270,-183 270,-147 382,-147 382,-183"/>
<text text-anchor="middle" x="326" y="-161.9" font-family="Times,serif" font-size="12.00">registerRequest</text>
</g>
<!-- 140588195305504 -->
<g id="node26" class="node">
<title>140588195305504</title>
<ellipse fill="none" stroke="black" cx="445" cy="-165" rx="27" ry="27"/>
</g>
<!-- 140588195305840&#45;&gt;140588195305504 -->
<g id="edge7" class="edge">
<title>140588195305840&#45;&gt;140588195305504</title>
<path fill="none" stroke="black" d="M382.42,-165C390.48,-165 398.62,-165 406.22,-165"/>
<polygon fill="black" stroke="black" points="406.13,-168.5 416.13,-165 406.13,-161.5 406.13,-168.5"/>
</g>
<!-- 140588195307376 -->
<g id="node18" class="node">
<title>140588195307376</title>
<polygon fill="black" stroke="black" points="742,-140 688,-140 688,-104 742,-104 742,-140"/>
</g>
<!-- 140588195307280 -->
<g id="node29" class="node">
<title>140588195307280</title>
<ellipse fill="none" stroke="black" cx="805" cy="-122" rx="27" ry="27"/>
</g>
<!-- 140588195307376&#45;&gt;140588195307280 -->
<g id="edge9" class="edge">
<title>140588195307376&#45;&gt;140588195307280</title>
<path fill="none" stroke="black" d="M742.4,-122C749.89,-122 758.18,-122 766.2,-122"/>
<polygon fill="black" stroke="black" points="766.1,-125.5 776.1,-122 766.1,-118.5 766.1,-125.5"/>
</g>
<!-- 140588195259632 -->
<g id="node19" class="node">
<title>140588195259632</title>
<polygon fill="black" stroke="black" points="1257,-147 1203,-147 1203,-111 1257,-111 1257,-147"/>
</g>
<!-- 140588195258768 -->
<g id="node30" class="node">
<title>140588195258768</title>
<ellipse fill="none" stroke="black" cx="1989" cy="-135" rx="27" ry="27"/>
</g>
<!-- 140588195259632&#45;&gt;140588195258768 -->
<g id="edge35" class="edge">
<title>140588195259632&#45;&gt;140588195258768</title>
<path fill="none" stroke="black" d="M1257.15,-126.79C1308.79,-122.61 1427.51,-114 1527.5,-114 1527.5,-114 1527.5,-114 1810,-114 1859.14,-114 1915.38,-121.99 1951.27,-128.11"/>
<polygon fill="black" stroke="black" points="1950.23,-131.48 1960.68,-129.76 1951.43,-124.59 1950.23,-131.48"/>
</g>
<!-- 140588195260016 -->
<g id="node20" class="node">
<title>140588195260016</title>
<polygon fill="black" stroke="black" points="1167,-210 1113,-210 1113,-174 1167,-174 1167,-210"/>
</g>
<!-- 140588195260016&#45;&gt;140588195259920 -->
<g id="edge10" class="edge">
<title>140588195260016&#45;&gt;140588195259920</title>
<path fill="none" stroke="black" d="M1167.4,-193.8C1174.89,-194.31 1183.18,-194.88 1191.2,-195.42"/>
<polygon fill="black" stroke="black" points="1190.89,-198.91 1201.11,-196.1 1191.37,-191.93 1190.89,-198.91"/>
</g>
<!-- 140588195307632 -->
<g id="node21" class="node">
<title>140588195307632</title>
<polygon fill="black" stroke="black" points="1926,-240 1872,-240 1872,-204 1926,-204 1926,-240"/>
</g>
<!-- 140588195307632&#45;&gt;140588195258768 -->
<g id="edge38" class="edge">
<title>140588195307632&#45;&gt;140588195258768</title>
<path fill="none" stroke="black" d="M1918.66,-203.55C1930.95,-191.41 1947.23,-175.31 1960.92,-161.77"/>
<polygon fill="black" stroke="black" points="1963.33,-164.31 1967.98,-154.79 1958.41,-159.33 1963.33,-164.31"/>
</g>
<!-- 140588195260400 -->
<g id="node22" class="node">
<title>140588195260400</title>
<polygon fill="black" stroke="black" points="2106,-102 2052,-102 2052,-66 2106,-66 2106,-102"/>
</g>
<!-- 140588195260400&#45;&gt;140588195307280 -->
<g id="edge39" class="edge">
<title>140588195260400&#45;&gt;140588195307280</title>
<path fill="none" stroke="black" d="M2051.78,-82.08C2017.07,-79.72 1953.98,-76 1900,-76 1049,-76 1049,-76 1049,-76 968.11,-76 946.22,-74.39 868,-95 858.64,-97.47 848.87,-101.15 839.94,-105"/>
<polygon fill="black" stroke="black" points="838.57,-101.78 830.91,-109.1 841.46,-108.15 838.57,-101.78"/>
</g>
<!-- 140588195308784 -->
<g id="node23" class="node">
<title>140588195308784</title>
<polygon fill="black" stroke="black" points="2286,-119 2232,-119 2232,-83 2286,-83 2286,-119"/>
</g>
<!-- 140588195308784&#45;&gt;140588195306608 -->
<g id="edge41" class="edge">
<title>140588195308784&#45;&gt;140588195306608</title>
<path fill="none" stroke="black" d="M2231.59,-85.26C2197.71,-66.6 2136.55,-38 2080,-38 804,-38 804,-38 804,-38 747.15,-38 689.02,-73.47 655.28,-98.31"/>
<polygon fill="black" stroke="black" points="653.51,-95.27 647.64,-104.09 657.73,-100.85 653.51,-95.27"/>
</g>
<!-- 140588804172480 -->
<g id="node24" class="node">
<title>140588804172480</title>
<ellipse fill="none" stroke="black" cx="27" cy="-201" rx="27" ry="27"/>
<text text-anchor="start" x="11.5" y="-192.3" font-family="Times,serif" font-size="34.00">â—</text>
</g>
<!-- 140588804172480&#45;&gt;140588195273984 -->
<g id="edge45" class="edge">
<title>140588804172480&#45;&gt;140588195273984</title>
<path fill="none" stroke="black" d="M54.4,-201C61.89,-201 70.18,-201 78.2,-201"/>
<polygon fill="black" stroke="black" points="78.1,-204.5 88.1,-201 78.1,-197.5 78.1,-204.5"/>
</g>
<!-- 140588195305312&#45;&gt;140588195307088 -->
<g id="edge12" class="edge">
<title>140588195305312&#45;&gt;140588195307088</title>
<path fill="none" stroke="black" d="M2373.12,-270.39C2381.89,-265.61 2392.1,-260.04 2401.79,-254.75"/>
<polygon fill="black" stroke="black" points="2403.18,-257.98 2410.28,-250.12 2399.83,-251.83 2403.18,-257.98"/>
</g>
<!-- 140588195305312&#45;&gt;140588195273696 -->
<g id="edge13" class="edge">
<title>140588195305312&#45;&gt;140588195273696</title>
<path fill="none" stroke="black" d="M2373.12,-295.61C2381.89,-300.39 2392.1,-305.96 2401.79,-311.25"/>
<polygon fill="black" stroke="black" points="2399.83,-314.17 2410.28,-315.88 2403.18,-308.02 2399.83,-314.17"/>
</g>
<!-- 140588195305504&#45;&gt;140588195306272 -->
<g id="edge15" class="edge">
<title>140588195305504&#45;&gt;140588195306272</title>
<path fill="none" stroke="black" d="M470.26,-174.68C517.37,-193.49 621.49,-235.07 677.18,-257.3"/>
<polygon fill="black" stroke="black" points="675.65,-260.46 686.23,-260.91 678.24,-253.95 675.65,-260.46"/>
</g>
<!-- 140588195305504&#45;&gt;140588195306704 -->
<g id="edge14" class="edge">
<title>140588195305504&#45;&gt;140588195306704</title>
<path fill="none" stroke="black" d="M470.98,-156.77C479.06,-154.11 488.19,-151.1 496.95,-148.21"/>
<polygon fill="black" stroke="black" points="497.89,-151.59 506.29,-145.13 495.7,-144.94 497.89,-151.59"/>
</g>
<!-- 140588195306608&#45;&gt;140588195307376 -->
<g id="edge16" class="edge">
<title>140588195306608&#45;&gt;140588195307376</title>
<path fill="none" stroke="black" d="M652.4,-122C659.89,-122 668.18,-122 676.2,-122"/>
<polygon fill="black" stroke="black" points="676.1,-125.5 686.1,-122 676.1,-118.5 676.1,-125.5"/>
</g>
<!-- 140588195307184&#45;&gt;140588195309072 -->
<g id="edge18" class="edge">
<title>140588195307184&#45;&gt;140588195309072</title>
<path fill="none" stroke="black" d="M2194.51,-148.03C2202.76,-151.4 2212.14,-155.24 2221.12,-158.91"/>
<polygon fill="black" stroke="black" points="2219.79,-162.15 2230.37,-162.7 2222.44,-155.67 2219.79,-162.15"/>
</g>
<!-- 140588195307184&#45;&gt;140588195308784 -->
<g id="edge17" class="edge">
<title>140588195307184&#45;&gt;140588195308784</title>
<path fill="none" stroke="black" d="M2194.05,-127.89C2202.39,-124.38 2211.94,-120.37 2221.07,-116.53"/>
<polygon fill="black" stroke="black" points="2222.25,-119.83 2230.11,-112.73 2219.54,-113.38 2222.25,-119.83"/>
</g>
<!-- 140588195307280&#45;&gt;140588195259152 -->
<g id="edge20" class="edge">
<title>140588195307280&#45;&gt;140588195259152</title>
<path fill="none" stroke="black" d="M830.1,-132.8C843.05,-138.6 859.55,-146 875.22,-153.02"/>
<polygon fill="black" stroke="black" points="873.42,-156.05 883.97,-156.94 876.28,-149.66 873.42,-156.05"/>
</g>
<!-- 140588195307280&#45;&gt;140588195259440 -->
<g id="edge19" class="edge">
<title>140588195307280&#45;&gt;140588195259440</title>
<path fill="none" stroke="black" d="M832.44,-122C843.92,-122 857.81,-122 871.36,-122"/>
<polygon fill="black" stroke="black" points="871.08,-125.5 881.08,-122 871.08,-118.5 871.08,-125.5"/>
</g>
<!-- 140588195258768&#45;&gt;140588195308304 -->
<g id="edge22" class="edge">
<title>140588195258768&#45;&gt;140588195308304</title>
<path fill="none" stroke="black" d="M2016.4,-135.9C2023.89,-136.16 2032.18,-136.44 2040.2,-136.71"/>
<polygon fill="black" stroke="black" points="2039.99,-140.21 2050.1,-137.05 2040.23,-133.21 2039.99,-140.21"/>
</g>
<!-- 140588195258768&#45;&gt;140588195260400 -->
<g id="edge21" class="edge">
<title>140588195258768&#45;&gt;140588195260400</title>
<path fill="none" stroke="black" d="M2012.66,-121.87C2021.6,-116.69 2032.09,-110.61 2042.01,-104.86"/>
<polygon fill="black" stroke="black" points="2043.46,-108.06 2050.36,-100.02 2039.95,-102 2043.46,-108.06"/>
</g>
<!-- 140588195258864&#45;&gt;140588195259632 -->
<g id="edge24" class="edge">
<title>140588195258864&#45;&gt;140588195259632</title>
<path fill="none" stroke="black" d="M1076.88,-152.07C1107.03,-147.5 1157.08,-139.91 1191.49,-134.69"/>
<polygon fill="black" stroke="black" points="1191.65,-138.21 1201.01,-133.25 1190.6,-131.29 1191.65,-138.21"/>
</g>
<!-- 140588195258864&#45;&gt;140588195260016 -->
<g id="edge23" class="edge">
<title>140588195258864&#45;&gt;140588195260016</title>
<path fill="none" stroke="black" d="M1075.51,-166.03C1083.76,-169.4 1093.14,-173.24 1102.12,-176.91"/>
<polygon fill="black" stroke="black" points="1100.79,-180.15 1111.37,-180.7 1103.44,-173.67 1100.79,-180.15"/>
</g>
<!-- 140588195259920&#45;&gt;140588195261456 -->
<g id="edge25" class="edge">
<title>140588195259920&#45;&gt;140588195261456</title>
<path fill="none" stroke="black" d="M1255.36,-208.35C1274.29,-216.38 1300.88,-227.68 1322.59,-236.9"/>
<polygon fill="black" stroke="black" points="1321.15,-240.09 1331.72,-240.78 1323.88,-233.65 1321.15,-240.09"/>
</g>
<!-- 140588195259920&#45;&gt;140588195260736 -->
<g id="edge27" class="edge">
<title>140588195259920&#45;&gt;140588195260736</title>
<path fill="none" stroke="black" d="M1257.31,-198C1301.1,-198 1390.42,-198 1454.38,-198"/>
<polygon fill="black" stroke="black" points="1454.1,-201.5 1464.1,-198 1454.1,-194.5 1454.1,-201.5"/>
</g>
<!-- 140588195259920&#45;&gt;140588195261024 -->
<g id="edge26" class="edge">
<title>140588195259920&#45;&gt;140588195261024</title>
<path fill="none" stroke="black" d="M1244.63,-220.91C1255.97,-238.6 1273.38,-262.86 1293,-280 1298.72,-284.99 1305.19,-289.63 1311.82,-293.83"/>
<polygon fill="black" stroke="black" points="1309.88,-296.75 1320.25,-298.88 1313.47,-290.74 1309.88,-296.75"/>
</g>
<!-- 140588195260496&#45;&gt;140588195261648 -->
<g id="edge28" class="edge">
<title>140588195260496&#45;&gt;140588195261648</title>
<path fill="none" stroke="black" d="M1831.75,-210.17C1841.03,-203.85 1852.09,-196.3 1862.5,-189.21"/>
<polygon fill="black" stroke="black" points="1864.26,-192.24 1870.55,-183.72 1860.31,-186.46 1864.26,-192.24"/>
</g>
<!-- 140588195260496&#45;&gt;140588195307632 -->
<g id="edge29" class="edge">
<title>140588195260496&#45;&gt;140588195307632</title>
<path fill="none" stroke="black" d="M1836.4,-224.1C1843.89,-223.84 1852.18,-223.56 1860.2,-223.29"/>
<polygon fill="black" stroke="black" points="1860.23,-226.79 1870.1,-222.95 1859.99,-219.79 1860.23,-226.79"/>
</g>
<!-- 140588195261216&#45;&gt;140588195261696 -->
<g id="edge31" class="edge">
<title>140588195261216&#45;&gt;140588195261696</title>
<path fill="none" stroke="black" d="M1555.61,-256.82C1580.84,-252.77 1619.34,-246.6 1647.87,-242.03"/>
<polygon fill="black" stroke="black" points="1648.23,-245.52 1657.55,-240.48 1647.12,-238.61 1648.23,-245.52"/>
</g>
<!-- 140588195261216&#45;&gt;140588195262080 -->
<g id="edge30" class="edge">
<title>140588195261216&#45;&gt;140588195262080</title>
<path fill="none" stroke="black" d="M1555.26,-265.79C1571.77,-268.86 1594.05,-273 1615.52,-276.99"/>
<polygon fill="black" stroke="black" points="1614.67,-280.39 1625.15,-278.78 1615.95,-273.51 1614.67,-280.39"/>
</g>
<!-- 140588195273120&#45;&gt;140588195304688 -->
<g id="edge32" class="edge">
<title>140588195273120&#45;&gt;140588195304688</title>
<path fill="none" stroke="black" d="M234.26,-267.24C243.46,-268.03 254.21,-268.95 265.02,-269.87"/>
<polygon fill="black" stroke="black" points="264.49,-273.34 274.75,-270.7 265.08,-266.37 264.49,-273.34"/>
</g>
<!-- 140588195304256&#45;&gt;140588195273696 -->
<g id="edge33" class="edge">
<title>140588195304256&#45;&gt;140588195273696</title>
<path fill="none" stroke="black" d="M648.31,-359.37C681.06,-379.06 744.73,-412 804,-412 804,-412 804,-412 2260,-412 2314.93,-412 2371.53,-379.65 2405.74,-355.84"/>
<polygon fill="black" stroke="black" points="2407.44,-358.92 2413.55,-350.26 2403.37,-353.22 2407.44,-358.92"/>
</g>
<!-- 140588195304160&#45;&gt;140588195305840 -->
<g id="edge34" class="edge">
<title>140588195304160&#45;&gt;140588195305840</title>
<path fill="none" stroke="black" d="M234.26,-165C241.57,-165 249.85,-165 258.37,-165"/>
<polygon fill="black" stroke="black" points="258.13,-168.5 268.13,-165 258.13,-161.5 258.13,-168.5"/>
</g>
</g>
</svg>
